# xmcd CD database file
#
# Track frame offsets:
#	150
#	21772
#	34507
#	49307
#	68270
#	84167
#	98822
#	111252
#	126625
#	142642
#	160730
#	176865
#
# Disc length: 2537 seconds
#
# Revision: 1
# Processed by: cddbd v1.4PL0 Copyright (c) Steve Scherf et al.
# Submitted via: CDex 1.51
#
DISCID=9309e70c
DTITLE=Merle Haggard and Willie Nelson - Pancho and Lefty
DYEAR=1982
DGENRE=Country
TTITLE0=Pancho And Lefty
TTITLE1=It's My Lazy Day
TTITLE2=My Mary
TTITLE3=Half A Man
TTITLE4=Reasons To Quit
TTITLE5=No Reason To Quit
TTITLE6=Still Water Runs The Deepest
TTITLE7=My Life's Been A Pleasure
TTITLE8=All The Soft Places To Fall
TTITLE9=Opportunity To Cry
TTITLE10=Half A Man [Bonus]
TTITLE11=My Own Peculiar Way [Bonus]
EXTD=YEAR: 1982
EXTT0=
EXTT1=
EXTT2=
EXTT3=
EXTT4=
EXTT5=
EXTT6=
EXTT7=
EXTT8=
EXTT9=
EXTT10=
EXTT11=
PLAYORDER=
